# Blender v2.79 (sub 0) OBJ File: ''
# www.blender.org
mtllib env_plant.mtl
o Plane
v -1.000000 0.000000 0.000000
v 1.000000 0.000000 0.000000
v -1.000000 2.000000 -0.000000
v 1.000000 2.000000 -0.000000
v -0.543246 0.000000 -0.420337
v 0.543246 0.000000 0.420337
v -0.543246 1.373754 -0.420337
v 0.543246 1.373754 0.420337
v 0.663281 0.000000 -0.178489
v -0.663281 0.000000 0.178489
v 0.663281 1.373754 -0.178489
v -0.663281 1.373754 0.178489
v 0.788824 0.000000 -0.499546
v -0.788824 0.000000 0.499546
v 0.788824 1.867394 -0.499546
v -0.788824 1.867394 0.499546
v 0.041989 0.000000 -0.650951
v -0.041990 0.000000 0.650951
v 0.041990 1.304607 -0.650951
v -0.041989 1.304607 0.650951
v -0.324686 0.000000 -0.102144
v 0.324686 0.000000 0.102144
v -0.324686 0.680748 -0.102144
v 0.324686 0.680748 0.102144
v -1.000000 0.000000 0.000000
v 1.000000 0.000000 0.000000
v -1.000000 2.000000 -0.000000
v 1.000000 2.000000 -0.000000
v -0.543246 0.000000 -0.420337
v 0.543246 0.000000 0.420337
v -0.543246 1.373754 -0.420337
v 0.543246 1.373754 0.420337
v 0.663281 0.000000 -0.178489
v -0.663281 0.000000 0.178489
v 0.663281 1.373754 -0.178489
v -0.663281 1.373754 0.178489
v 0.788824 0.000000 -0.499546
v -0.788824 0.000000 0.499546
v 0.788824 1.867394 -0.499546
v -0.788824 1.867394 0.499546
v 0.041989 0.000000 -0.650951
v -0.041990 0.000000 0.650951
v 0.041990 1.304607 -0.650951
v -0.041989 1.304607 0.650951
v -0.324686 0.000000 -0.102144
v 0.324686 0.000000 0.102144
v -0.324686 0.680748 -0.102144
v 0.324686 0.680748 0.102144
vt 0.000100 0.000100
vt 0.999900 0.000100
vt 0.999900 0.999900
vt 0.000100 0.999900
vt 0.000100 0.000100
vt 0.999900 0.000100
vt 0.999900 0.999900
vt 0.000100 0.999900
vt 0.000100 0.000100
vt 0.999900 0.000100
vt 0.999900 0.999900
vt 0.000100 0.999900
vt 0.000100 0.000100
vt 0.999900 0.000100
vt 0.999900 0.999900
vt 0.000100 0.999900
vt 0.000100 0.000100
vt 0.999900 0.000100
vt 0.999900 0.999900
vt 0.000100 0.999900
vt 0.000100 0.000100
vt 0.999900 0.000100
vt 0.999900 0.999900
vt 0.000100 0.999900
vt 0.000100 0.000100
vt 0.000100 0.999900
vt 0.999900 0.999900
vt 0.999900 0.000100
vt 0.000100 0.000100
vt 0.000100 0.999900
vt 0.999900 0.999900
vt 0.999900 0.000100
vt 0.000100 0.000100
vt 0.000100 0.999900
vt 0.999900 0.999900
vt 0.999900 0.000100
vt 0.000100 0.000100
vt 0.000100 0.999900
vt 0.999900 0.999900
vt 0.999900 0.000100
vt 0.000100 0.000100
vt 0.000100 0.999900
vt 0.999900 0.999900
vt 0.999900 0.000100
vt 0.000100 0.000100
vt 0.000100 0.999900
vt 0.999900 0.999900
vt 0.999900 0.000100
vn 0.0000 0.0000 1.0000
vn -0.6120 0.0000 0.7909
vn -0.2599 0.0000 -0.9656
vn -0.5350 0.0000 -0.8448
vn -0.9979 0.0000 -0.0644
vn -0.3001 0.0000 0.9539
vn 0.0000 -0.0000 -1.0000
vn 0.6120 -0.0000 -0.7909
vn 0.2599 -0.0000 0.9656
vn 0.5350 -0.0000 0.8448
vn 0.9979 -0.0000 0.0644
vn 0.3001 -0.0000 -0.9539
usemtl None
s off
f 1/1/1 2/2/1 4/3/1 3/4/1
f 5/5/2 6/6/2 8/7/2 7/8/2
f 9/9/3 10/10/3 12/11/3 11/12/3
f 13/13/4 14/14/4 16/15/4 15/16/4
f 17/17/5 18/18/5 20/19/5 19/20/5
f 21/21/6 22/22/6 24/23/6 23/24/6
f 25/25/7 27/26/7 28/27/7 26/28/7
f 29/29/8 31/30/8 32/31/8 30/32/8
f 33/33/9 35/34/9 36/35/9 34/36/9
f 37/37/10 39/38/10 40/39/10 38/40/10
f 41/41/11 43/42/11 44/43/11 42/44/11
f 45/45/12 47/46/12 48/47/12 46/48/12
