# Blender v2.79 (sub 0) OBJ File: ''
# www.blender.org
mtllib env_ruin_statuebase.mtl
o Cube.004
v 1.125453 2.861619 -1.078427
v 1.093925 2.779703 -1.037309
v 1.037310 2.779703 -1.093925
v 1.078428 2.861619 -1.125453
v -1.037310 2.779703 -1.093925
v -1.093926 2.779703 -1.037309
v -1.125453 2.861619 -1.078427
v -1.078428 2.861619 -1.125453
v -1.078428 2.962955 -1.125453
v -1.125453 2.962955 -1.078427
v -1.078428 3.009980 -1.078427
v 1.078428 2.962955 -1.125453
v 1.078428 3.009980 -1.078427
v 1.125453 2.962955 -1.078427
v 1.144878 0.399412 1.084065
v 1.084065 0.399412 1.144878
v 1.133408 0.325560 1.180523
v 1.180523 0.325560 1.133408
v 1.084065 0.399412 -1.144878
v 1.144878 0.399412 -1.084065
v 1.180523 0.325560 -1.133408
v 1.133408 0.325560 -1.180523
v 1.012189 0.539062 -0.965164
v 1.050749 0.465120 -0.989936
v 0.989936 0.465120 -1.050749
v 0.965164 0.539062 -1.012189
v 0.965164 0.539062 1.012189
v 0.989936 0.465120 1.050749
v 1.050749 0.465120 0.989936
v 1.012189 0.539062 0.965164
v -1.133408 0.325560 -1.180523
v -1.180523 0.325560 -1.133408
v -1.144878 0.399412 -1.084065
v -1.084065 0.399412 -1.144878
v -1.144878 0.399412 1.084065
v -1.180523 0.325560 1.133408
v -1.133408 0.325560 1.180523
v -1.084065 0.399412 1.144878
v -1.050749 0.465120 0.989936
v -0.989936 0.465120 1.050749
v -0.965164 0.539062 1.012189
v -1.012189 0.539062 0.965164
v -1.050749 0.465120 -0.989936
v -1.012189 0.539062 -0.965164
v -0.965164 0.539062 -1.012189
v -0.989936 0.465120 -1.050749
v -1.303790 0.035102 -1.350815
v -1.303790 -0.011924 -1.303790
v -1.350815 0.035102 -1.303790
v 1.303790 -0.011924 -1.303790
v 1.303790 0.035102 -1.350815
v 1.350815 0.035102 -1.303790
v 1.350815 0.035101 1.303790
v 1.303790 0.035101 1.350815
v 1.303790 -0.011924 1.303790
v -1.303790 -0.011924 1.303790
v -1.303790 0.035101 1.350815
v -1.350815 0.035101 1.303790
v 1.156834 0.259325 1.220421
v 1.220421 0.259325 1.156834
v 1.180535 0.325740 1.133419
v 1.133419 0.325740 1.180534
v -1.180534 0.325740 1.133419
v -1.220421 0.259325 1.156834
v -1.156834 0.259325 1.220421
v -1.133419 0.325740 1.180535
v 1.220421 0.259325 -1.156834
v 1.156834 0.259325 -1.220421
v 1.133419 0.325740 -1.180535
v 1.180534 0.325740 -1.133419
v -1.180535 0.325740 -1.133419
v -1.133419 0.325740 -1.180534
v -1.156834 0.259325 -1.220421
v -1.220421 0.259325 -1.156834
v -1.043717 2.724137 0.987101
v -1.012189 2.642220 0.965164
v -0.965164 2.642220 1.012190
v -0.987101 2.724137 1.043717
v -1.043717 2.724137 -0.987100
v -0.987101 2.724137 -1.043716
v -0.965164 2.642221 -1.012189
v -1.012189 2.642221 -0.965163
v 1.012189 2.642221 -0.965163
v 0.965164 2.642221 -1.012189
v 0.987101 2.724137 -1.043716
v 1.043717 2.724137 -0.987100
v 1.012189 2.642220 0.965164
v 1.043717 2.724137 0.987101
v 0.987101 2.724137 1.043717
v 0.965164 2.642220 1.012190
v 1.078428 2.861619 1.125453
v 1.037310 2.779703 1.093926
v 1.093926 2.779703 1.037310
v 1.125453 2.861619 1.078428
v -1.125453 2.861619 1.078428
v -1.093925 2.779703 1.037310
v -1.037310 2.779703 1.093926
v -1.078428 2.861619 1.125453
v -1.078428 2.962955 1.125453
v -1.078428 3.009980 1.078428
v -1.125453 2.962955 1.078428
v 1.078428 2.962955 1.125453
v 1.125453 2.962955 1.078428
v 1.078428 3.009980 1.078428
v -1.350815 0.152952 1.303790
v -1.303790 0.152952 1.350815
v -1.244427 0.219458 1.308014
v -1.308014 0.219458 1.244427
v -1.303790 0.152953 -1.350815
v -1.350815 0.152953 -1.303790
v -1.308014 0.219458 -1.244427
v -1.244427 0.219458 -1.308014
v 1.308014 0.219458 -1.244427
v 1.350815 0.152953 -1.303790
v 1.303790 0.152953 -1.350815
v 1.244427 0.219458 -1.308014
v 1.244427 0.219458 1.308014
v 1.303790 0.152952 1.350815
v 1.350815 0.152952 1.303790
v 1.308014 0.219458 1.244427
vt 0.664228 0.041553
vt 0.664228 0.266247
vt 0.655672 0.271965
vt 0.655672 0.035835
vt 0.590638 0.359060
vt 0.590636 0.359040
vt 0.332614 0.359040
vt 0.332612 0.359060
vt 0.051260 0.024862
vt 0.051240 0.024864
vt 0.051240 0.282886
vt 0.051260 0.282888
vt 0.938041 0.030513
vt 0.938041 0.277287
vt 0.924959 0.266569
vt 0.924959 0.041231
vt 0.005470 0.005452
vt 0.018930 0.005452
vt 0.018930 0.302248
vt 0.005470 0.302248
vt 0.914249 0.263748
vt 0.674951 0.263748
vt 0.674951 0.044052
vt 0.914249 0.044052
vt 0.282888 0.666510
vt 0.282886 0.666490
vt 0.024864 0.666490
vt 0.024862 0.666510
vt 0.338213 0.369736
vt 0.584987 0.369736
vt 0.574269 0.382764
vt 0.348931 0.382764
vt 0.030513 0.677159
vt 0.277287 0.677159
vt 0.266569 0.690241
vt 0.041231 0.690241
vt 0.085751 0.044052
vt 0.325049 0.044052
vt 0.325049 0.263748
vt 0.085751 0.263748
vt 0.302248 0.620748
vt 0.302248 0.634152
vt 0.005452 0.634152
vt 0.005452 0.620748
vt 0.571448 0.393453
vt 0.571448 0.632847
vt 0.351752 0.632847
vt 0.351752 0.393453
vt 0.263748 0.700953
vt 0.263748 0.940347
vt 0.044052 0.940347
vt 0.044052 0.700953
vt 0.061959 0.277287
vt 0.061959 0.030513
vt 0.075041 0.041231
vt 0.075041 0.266569
vt 0.041553 0.951044
vt 0.266247 0.951044
vt 0.271965 0.959556
vt 0.035835 0.959556
vt 0.355043 0.276648
vt 0.355043 0.031152
vt 0.366557 0.031152
vt 0.366557 0.276648
vt 0.338852 0.662767
vt 0.584348 0.662767
vt 0.584348 0.674333
vt 0.338852 0.674333
vt 0.335772 0.266247
vt 0.335772 0.041553
vt 0.344328 0.035835
vt 0.344328 0.271965
vt 0.948740 0.282888
vt 0.948760 0.282886
vt 0.948760 0.024864
vt 0.948740 0.024862
vt 0.622748 0.276648
vt 0.377252 0.276648
vt 0.377252 0.031152
vt 0.622748 0.031152
vt 0.031152 0.970267
vt 0.276648 0.970267
vt 0.276648 0.981833
vt 0.031152 0.981833
vt 0.994530 0.302248
vt 0.981071 0.302248
vt 0.981071 0.005452
vt 0.994529 0.005452
vt 0.302247 0.610047
vt 0.005452 0.610048
vt 0.005452 0.313252
vt 0.302248 0.313252
vt 0.610048 0.313248
vt 0.610048 0.326652
vt 0.313252 0.326652
vt 0.313252 0.313248
vt 0.603294 0.337363
vt 0.593331 0.348337
vt 0.329969 0.348337
vt 0.320006 0.337363
vt 0.295494 0.644863
vt 0.285531 0.655837
vt 0.022169 0.655837
vt 0.012206 0.644863
vt 0.349253 0.643544
vt 0.573947 0.643544
vt 0.579665 0.652056
vt 0.343535 0.652056
vt 0.029638 0.012206
vt 0.040562 0.022169
vt 0.040562 0.285531
vt 0.029638 0.295494
vt 0.970362 0.295494
vt 0.959438 0.285531
vt 0.959438 0.022169
vt 0.970362 0.012206
vt 0.644957 0.276648
vt 0.650300 0.271967
vt 0.650300 0.278412
vt 0.644957 0.282000
vt 0.276410 0.956580
vt 0.282000 0.964900
vt 0.276648 0.964900
vt 0.282000 0.981833
vt 0.276648 0.987200
vt 0.031152 0.987200
vt 0.025800 0.981833
vt 0.934643 0.026375
vt 0.942272 0.020124
vt 0.943400 0.024894
vt 0.026375 0.680557
vt 0.020124 0.672928
vt 0.024894 0.671800
vt 0.919600 0.266567
vt 0.919600 0.269100
vt 0.914249 0.269100
vt 0.574267 0.388100
vt 0.576800 0.388100
vt 0.576800 0.393453
vt 0.288228 0.666161
vt 0.284211 0.671800
vt 0.277289 0.671800
vt 0.056600 0.024894
vt 0.057728 0.020124
vt 0.065357 0.026375
vt 0.078439 0.037093
vt 0.080400 0.038700
vt 0.080400 0.044052
vt 0.080400 0.263748
vt 0.080400 0.269100
vt 0.078439 0.270707
vt 0.302248 0.615400
vt 0.307600 0.620748
vt 0.005452 0.615400
vt 0.000100 0.610048
vt 0.994529 0.000100
vt 0.999900 0.005452
vt 0.302248 0.307900
vt 0.307600 0.313252
vt 0.597291 0.351947
vt 0.595700 0.353700
vt 0.590669 0.353700
vt 0.045900 0.022166
vt 0.045900 0.019800
vt 0.050929 0.019518
vt 0.955845 0.289491
vt 0.954100 0.287900
vt 0.954100 0.282869
vt 0.050929 0.288229
vt 0.045900 0.287900
vt 0.045900 0.285534
vt 0.330400 0.044052
vt 0.330400 0.038700
vt 0.332781 0.037109
vt 0.332781 0.270691
vt 0.330400 0.269100
vt 0.330400 0.263748
vt 0.674951 0.269100
vt 0.669600 0.269100
vt 0.669600 0.266245
vt 0.669600 0.041555
vt 0.669600 0.038700
vt 0.674951 0.038700
vt 0.579667 0.657400
vt 0.586111 0.657400
vt 0.589700 0.662767
vt 0.349700 0.035833
vt 0.349700 0.029389
vt 0.355043 0.025800
vt 0.338852 0.679700
vt 0.333500 0.674333
vt 0.589700 0.674333
vt 0.584348 0.679700
vt 0.018930 0.000100
vt 0.024300 0.004972
vt 0.024300 0.012209
vt 0.307600 0.634152
vt 0.302728 0.639500
vt 0.295491 0.639500
vt 0.975700 0.302248
vt 0.974252 0.306280
vt 0.966769 0.299455
vt 0.610048 0.332000
vt 0.614080 0.333454
vt 0.607255 0.340972
vt 0.333500 0.662767
vt 0.339090 0.649079
vt 0.344809 0.640568
vt 0.622748 0.282000
vt 0.377252 0.282000
vt 0.644957 0.031152
vt 0.633443 0.031152
vt 0.633443 0.025800
vt 0.644957 0.025800
vt 0.981070 0.000100
vt 0.658664 0.031390
vt 0.667219 0.037109
vt 0.914249 0.038700
vt 0.344793 0.386147
vt 0.334075 0.373120
vt 0.346400 0.632847
vt 0.346400 0.393453
vt 0.065357 0.281425
vt 0.270691 0.948068
vt 0.633443 0.276648
vt 0.313252 0.307900
vt 0.610048 0.307900
vt 0.667219 0.270691
vt 0.658664 0.276410
vt 0.366557 0.282000
vt 0.355043 0.282000
vt 0.000100 0.634152
vt 0.000100 0.620748
vt 0.025800 0.970267
vt 0.299455 0.648472
vt 0.289491 0.659447
vt 0.595982 0.358729
vt 0.595981 0.358708
vt 0.307900 0.326652
vt 0.307900 0.313248
vt 0.949071 0.288229
vt 0.949092 0.288228
vt 0.325049 0.269100
vt 0.085751 0.269100
vt 0.999900 0.302248
vt 0.307600 0.610048
vt 0.037093 0.693639
vt 0.033231 0.008245
vt 0.044155 0.018209
vt 0.018930 0.307600
vt 0.005470 0.307600
vt 0.288229 0.666182
vt 0.050908 0.019519
vt 0.921561 0.037093
vt 0.038700 0.940347
vt 0.038700 0.700953
vn 0.7356 -0.6214 0.2697
vn 0.7356 -0.6214 -0.2697
vn 0.7437 -0.6064 -0.2814
vn 0.7437 -0.6064 0.2814
vn -0.0469 0.9989 -0.0042
vn -0.0964 0.8858 -0.4539
vn 0.0966 0.8857 -0.4541
vn 0.0467 0.9989 -0.0040
vn 0.0042 0.9989 -0.0469
vn 0.4540 0.8858 -0.0964
vn 0.4540 0.8857 0.0966
vn 0.0040 0.9989 0.0467
vn 0.6629 0.7118 0.2321
vn 0.6629 0.7118 -0.2321
vn 0.6203 0.7517 -0.2241
vn 0.6203 0.7517 0.2241
vn -0.8756 -0.3416 0.3416
vn -0.8546 0.3492 0.3843
vn -0.8546 0.3492 -0.3843
vn -0.8756 -0.3416 -0.3416
vn 0.8897 0.2881 -0.3541
vn 0.9053 -0.2236 -0.3612
vn 0.9053 -0.2236 0.3612
vn 0.8897 0.2881 0.3541
vn 0.0469 0.9989 0.0042
vn 0.0964 0.8858 0.4539
vn -0.0966 0.8857 0.4541
vn -0.0467 0.9989 0.0040
vn -0.2321 0.7118 0.6629
vn 0.2321 0.7118 0.6629
vn 0.2241 0.7517 0.6203
vn -0.2241 0.7517 0.6203
vn 0.2321 0.7118 -0.6629
vn -0.2321 0.7118 -0.6629
vn -0.2241 0.7517 -0.6203
vn 0.2241 0.7517 -0.6203
vn -0.8897 0.2881 0.3541
vn -0.9053 -0.2236 0.3612
vn -0.9053 -0.2236 -0.3612
vn -0.8897 0.2881 -0.3541
vn -0.3416 -0.3416 -0.8756
vn -0.3843 0.3492 -0.8546
vn 0.3843 0.3492 -0.8546
vn 0.3416 -0.3416 -0.8756
vn 0.3541 0.2881 0.8897
vn 0.3612 -0.2236 0.9053
vn -0.3612 -0.2236 0.9053
vn -0.3541 0.2881 0.8897
vn -0.3541 0.2881 -0.8897
vn -0.3612 -0.2236 -0.9053
vn 0.3612 -0.2236 -0.9053
vn 0.3541 0.2881 -0.8897
vn -0.6629 0.7118 -0.2321
vn -0.6629 0.7118 0.2321
vn -0.6203 0.7517 0.2241
vn -0.6203 0.7517 -0.2241
vn 0.2697 -0.6214 -0.7356
vn -0.2697 -0.6214 -0.7356
vn -0.2814 -0.6064 -0.7437
vn 0.2814 -0.6064 -0.7437
vn -0.8874 -0.2403 -0.3935
vn -0.8874 -0.2403 0.3935
vn -0.8756 0.3416 0.3416
vn -0.8756 0.3416 -0.3416
vn -0.3935 -0.2403 0.8874
vn 0.3935 -0.2403 0.8874
vn 0.3416 0.3416 0.8756
vn -0.3416 0.3416 0.8756
vn -0.7356 -0.6214 -0.2697
vn -0.7356 -0.6214 0.2697
vn -0.7437 -0.6064 0.2814
vn -0.7437 -0.6064 -0.2814
vn -0.0042 0.9989 0.0469
vn -0.4540 0.8858 0.0964
vn -0.4540 0.8857 -0.0966
vn -0.0040 0.9989 -0.0467
vn 0.3416 0.8756 -0.3416
vn -0.3416 0.8756 -0.3416
vn -0.3416 0.8756 0.3416
vn 0.3416 0.8756 0.3416
vn 0.3935 -0.2403 -0.8874
vn -0.3935 -0.2403 -0.8874
vn -0.3416 0.3416 -0.8756
vn 0.3416 0.3416 -0.8756
vn 0.8756 -0.3416 -0.3416
vn 0.8546 0.3492 -0.3843
vn 0.8546 0.3492 0.3843
vn 0.8756 -0.3416 0.3416
vn -0.3416 -0.8756 -0.3416
vn 0.3416 -0.8756 -0.3416
vn 0.3416 -0.8756 0.3416
vn -0.3416 -0.8756 0.3416
vn 0.3416 -0.3416 0.8756
vn 0.3843 0.3492 0.8546
vn -0.3843 0.3492 0.8546
vn -0.3416 -0.3416 0.8756
vn 0.1830 0.7988 0.5731
vn 0.1926 0.8269 0.5284
vn -0.1926 0.8269 0.5284
vn -0.1830 0.7988 0.5731
vn -0.1830 0.7988 -0.5731
vn -0.1926 0.8269 -0.5284
vn 0.1926 0.8269 -0.5284
vn 0.1830 0.7988 -0.5731
vn -0.2697 -0.6214 0.7356
vn 0.2697 -0.6214 0.7356
vn 0.2814 -0.6064 0.7437
vn -0.2814 -0.6064 0.7437
vn -0.5731 0.7988 0.1830
vn -0.5284 0.8269 0.1926
vn -0.5284 0.8269 -0.1926
vn -0.5731 0.7988 -0.1830
vn 0.5731 0.7988 -0.1830
vn 0.5284 0.8269 -0.1926
vn 0.5284 0.8269 0.1926
vn 0.5731 0.7988 0.1830
vn 0.8874 -0.2403 -0.3935
vn 0.8756 0.3416 -0.3416
vn 0.8874 -0.2403 0.3935
vn 0.8756 0.3416 0.3416
usemtl Material.006
s 1
f 88/1/1 86/2/2 2/3/3 93/4/4
f 62/5/5 17/6/6 37/7/7 66/8/8
f 63/9/9 36/10/10 32/11/11 71/12/12
f 15/13/13 20/14/14 24/15/15 29/16/16
f 58/17/17 105/18/18 110/19/19 49/20/20
f 23/21/21 83/22/22 87/23/23 30/24/24
f 72/25/25 31/26/26 22/27/27 69/28/28
f 38/29/29 16/30/30 28/31/31 40/32/32
f 19/33/33 34/34/34 46/35/35 25/36/36
f 42/37/37 76/38/38 82/39/39 44/40/40
f 47/41/41 109/42/42 115/43/43 51/44/44
f 27/45/45 90/46/46 77/47/47 41/48/48
f 45/49/49 81/50/50 84/51/51 26/52/52
f 33/53/53 35/54/54 39/55/55 43/56/56
f 85/57/57 80/58/58 5/59/59 3/60/60
f 7/61/61 95/62/62 101/63/63 10/64/64
f 98/65/65 91/66/66 102/67/67 99/68/68
f 79/69/69 75/70/70 96/71/71 6/72/72
f 70/73/73 21/74/74 18/75/75 61/76/76
f 13/77/77 11/78/78 100/79/79 104/80/80
f 4/81/81 8/82/82 9/83/83 12/84/84
f 52/85/85 114/86/86 119/87/87 53/88/88
f 48/89/89 50/90/90 55/91/91 56/92/92
f 54/93/93 118/94/94 106/95/95 57/96/96
f 117/97/97 59/98/98 65/99/99 107/100/100
f 112/101/101 73/102/102 68/103/103 116/104/104
f 78/105/105 89/106/106 92/107/107 97/108/108
f 108/109/109 64/110/110 74/111/111 111/112/112
f 113/113/113 67/114/114 60/115/115 120/116/116
f 1/117/117 2/118/3 3/119/60 4/120/81
f 5/59/59 6/121/72 7/122/61 8/123/82
f 9/83/83 10/124/64 11/125/78
f 12/84/84 13/126/77 14/127/118
f 15/13/13 16/128/30 17/129/6 18/130/75
f 19/33/33 20/131/14 21/132/74 22/133/27
f 23/21/21 24/134/15 25/135/36 26/136/52
f 27/45/45 28/137/31 29/138/16 30/139/24
f 31/26/26 32/140/11 33/141/53 34/142/34
f 35/54/54 36/143/10 37/144/7 38/145/29
f 39/55/55 40/146/32 41/147/48 42/148/37
f 43/56/56 44/149/40 45/150/49 46/151/35
f 47/41/41 48/152/89 49/153/20
f 50/90/90 51/154/44 52/155/85
f 53/88/88 54/156/93 55/157/91
f 56/92/92 57/158/96 58/159/17
f 59/98/98 60/160/115 61/161/76 62/162/5
f 63/9/9 64/163/110 65/164/99 66/165/8
f 67/114/114 68/166/103 69/167/28 70/168/73
f 71/12/12 72/169/25 73/170/102 74/171/111
f 75/70/70 76/172/38 77/173/47 78/174/105
f 79/69/69 80/175/58 81/176/50 82/177/39
f 83/22/22 84/178/51 85/179/57 86/180/2
f 87/23/23 88/181/1 89/182/106 90/183/46
f 91/66/66 92/184/107 93/185/4 94/186/119
f 95/62/62 96/187/71 97/188/108 98/189/65
f 99/68/68 100/190/79 101/191/63
f 102/67/67 103/192/120 104/193/80
f 105/18/18 106/194/95 107/195/100 108/196/109
f 109/42/42 110/197/19 111/198/112 112/199/101
f 113/113/113 114/200/86 115/201/43 116/202/104
f 117/97/97 118/203/94 119/204/87 120/205/116
f 86/2/2 88/1/1 87/23/23 83/22/22
f 98/65/65 99/68/68 101/191/63 95/206/62
f 78/105/105 97/108/108 96/207/71 75/208/70
f 22/27/27 31/26/26 34/34/34 19/33/33
f 11/78/78 13/77/77 12/209/84 9/210/83
f 59/98/98 117/97/97 120/205/116 60/160/115
f 94/211/119 103/212/120 102/213/67 91/214/66
f 1/117/117 94/211/119 93/4/4 2/3/3
f 53/88/88 119/87/87 118/215/94 54/156/93
f 88/1/1 93/4/4 92/216/107 89/217/106
f 30/24/24 87/23/23 90/183/46 27/218/45
f 47/41/41 51/44/44 50/90/90 48/89/89
f 10/64/64 101/63/63 100/79/79 11/78/78
f 60/115/115 67/114/114 70/73/73 61/76/76
f 38/29/29 40/32/32 39/219/55 35/220/54
f 41/48/48 77/47/47 76/221/38 42/222/37
f 18/75/75 21/74/74 20/14/14 15/13/13
f 113/113/113 120/116/116 119/87/87 114/86/86
f 63/9/9 71/12/12 74/111/111 64/110/110
f 33/53/53 43/56/56 46/151/35 34/223/34
f 5/59/59 80/58/58 79/224/69 6/121/72
f 80/58/58 85/57/57 84/51/51 81/50/50
f 62/5/5 66/8/8 65/99/99 59/98/98
f 13/77/77 104/80/80 103/212/120 14/225/118
f 77/47/47 90/46/46 89/106/106 78/105/105
f 54/93/93 57/96/96 56/226/92 55/227/91
f 91/66/66 98/65/65 97/108/108 92/107/107
f 2/3/3 86/2/2 85/228/57 3/229/60
f 7/61/61 10/64/64 9/230/83 8/231/82
f 51/44/44 115/43/43 114/232/86 52/233/85
f 23/21/21 30/24/24 29/16/16 24/15/15
f 27/45/45 41/48/48 40/32/32 28/31/31
f 16/30/30 38/29/29 37/7/7 17/6/6
f 4/81/81 12/84/84 14/127/118 1/234/117
f 68/103/103 73/102/102 72/25/25 69/28/28
f 112/101/101 116/104/104 115/43/43 109/42/42
f 73/102/102 112/101/101 111/235/112 74/236/111
f 17/6/6 62/5/5 61/237/76 18/238/75
f 32/11/11 36/10/10 35/54/54 33/53/53
f 57/96/96 106/95/95 105/239/18 58/240/17
f 99/68/68 102/67/67 104/193/80 100/190/79
f 106/95/95 118/94/94 117/97/97 107/100/100
f 6/72/72 96/71/71 95/62/62 7/61/61
f 21/74/74 70/73/73 69/241/28 22/242/27
f 25/36/36 46/35/35 45/49/49 26/52/52
f 67/114/114 113/113/113 116/202/104 68/166/103
f 44/40/40 82/39/39 81/243/50 45/244/49
f 75/70/70 79/69/69 82/39/39 76/38/38
f 52/85/85 53/88/88 55/157/91 50/245/90
f 42/37/37 44/40/40 43/56/56 39/55/55
f 48/89/89 56/92/92 58/159/17 49/246/20
f 19/33/33 25/36/36 24/247/15 20/131/14
f 3/60/60 5/59/59 8/82/82 4/81/81
f 64/110/110 108/109/109 107/248/100 65/249/99
f 49/20/20 110/19/19 109/250/42 47/251/41
f 31/26/26 72/25/25 71/252/12 32/140/11
f 36/10/10 63/9/9 66/165/8 37/253/7
f 15/13/13 29/16/16 28/254/31 16/128/30
f 26/52/52 84/51/51 83/255/22 23/256/21
f 108/109/109 111/112/112 110/19/19 105/18/18
f 94/211/119 1/117/117 14/225/118 103/212/120
