# Blender v2.79 (sub 0) OBJ File: ''
# www.blender.org
mtllib env_tube.mtl
o Cylinder
v 0.000000 -1.000000 -1.000000
v 0.000000 1.000000 -1.000000
v 0.195090 -1.000000 -0.980785
v 0.195090 1.000000 -0.980785
v 0.382683 -1.000000 -0.923880
v 0.382683 1.000000 -0.923880
v 0.555570 -1.000000 -0.831470
v 0.555570 1.000000 -0.831470
v 0.707107 -1.000000 -0.707107
v 0.707107 1.000000 -0.707107
v 0.831470 -1.000000 -0.555570
v 0.831470 1.000000 -0.555570
v 0.923880 -1.000000 -0.382683
v 0.923880 1.000000 -0.382683
v 0.980785 -1.000000 -0.195090
v 0.980785 1.000000 -0.195090
v 1.000000 -1.000000 -0.000000
v 1.000000 1.000000 -0.000000
v -1.000000 -1.000000 -0.000001
v -1.000000 1.000000 -0.000001
v -0.980785 -1.000000 -0.195091
v -0.980785 1.000000 -0.195091
v -0.923879 -1.000000 -0.382684
v -0.923879 1.000000 -0.382684
v -0.831469 -1.000000 -0.555571
v -0.831469 1.000000 -0.555571
v -0.707106 -1.000000 -0.707108
v -0.707106 1.000000 -0.707108
v -0.555569 -1.000000 -0.831470
v -0.555569 1.000000 -0.831470
v -0.382682 -1.000000 -0.923880
v -0.382682 1.000000 -0.923880
v -0.195089 -1.000000 -0.980786
v -0.195089 1.000000 -0.980786
vt 0.486820 0.010192
vt 0.424330 0.010191
vt 0.424328 0.981994
vt 0.486818 0.981995
vt 0.361840 0.010191
vt 0.361838 0.981994
vt 0.299350 0.010191
vt 0.299349 0.981994
vt 0.236860 0.010191
vt 0.236859 0.981994
vt 0.174370 0.010191
vt 0.174369 0.981994
vt 0.111880 0.010190
vt 0.111879 0.981994
vt 0.049389 0.010190
vt 0.049389 0.981994
vt -0.013101 0.010190
vt -0.013101 0.981994
vt 0.986740 0.010195
vt 0.924250 0.010194
vt 0.924246 0.981997
vt 0.986736 0.981997
vt 0.861760 0.010194
vt 0.861756 0.981996
vt 0.799270 0.010193
vt 0.799267 0.981996
vt 0.736780 0.010193
vt 0.736777 0.981996
vt 0.674289 0.010192
vt 0.674287 0.981995
vt 0.611799 0.010192
vt 0.611797 0.981995
vt 0.549309 0.010192
vt 0.549307 0.981995
vn 0.0000 0.0000 1.0000
vn -0.1951 0.0000 0.9808
vn -0.3827 0.0000 0.9239
vn -0.5556 0.0000 0.8314
vn -0.7071 0.0000 0.7071
vn -0.8314 0.0000 0.5556
vn -0.9239 0.0000 0.3827
vn -0.9808 0.0000 0.1951
vn -0.9952 0.0000 0.0980
vn 0.9952 0.0000 0.0980
vn 0.9808 0.0000 0.1951
vn 0.9239 0.0000 0.3827
vn 0.8314 0.0000 0.5556
vn 0.7071 0.0000 0.7071
vn 0.5556 0.0000 0.8314
vn 0.3827 0.0000 0.9239
vn 0.1951 0.0000 0.9808
usemtl None
s 1
f 1/1/1 3/2/2 4/3/2 2/4/1
f 3/2/2 5/5/3 6/6/3 4/3/2
f 5/5/3 7/7/4 8/8/4 6/6/3
f 7/7/4 9/9/5 10/10/5 8/8/4
f 9/9/5 11/11/6 12/12/6 10/10/5
f 11/11/6 13/13/7 14/14/7 12/12/6
f 13/13/7 15/15/8 16/16/8 14/14/7
f 15/15/8 17/17/9 18/18/9 16/16/8
f 19/19/10 21/20/11 22/21/11 20/22/10
f 21/20/11 23/23/12 24/24/12 22/21/11
f 23/23/12 25/25/13 26/26/13 24/24/12
f 25/25/13 27/27/14 28/28/14 26/26/13
f 27/27/14 29/29/15 30/30/15 28/28/14
f 29/29/15 31/31/16 32/32/16 30/30/15
f 31/31/16 33/33/17 34/34/17 32/32/16
f 33/33/17 1/1/1 2/4/1 34/34/17
