# Blender v2.79 (sub 0) OBJ File: ''
# www.blender.org
mtllib fx_fishpath.mtl
o Plane
v 0.000000 0.000000 0.000000
v -0.990694 0.055574 -0.053191
v -0.951942 1.047660 -0.032842
v 0.000000 1.000000 0.000000
v 1.036282 1.082628 -0.052589
v 1.050038 0.086513 -0.024892
v 1.063794 -0.909601 0.002804
v 0.000000 -1.000000 -0.000000
v -1.029446 -0.936512 -0.073540
v 2.200152 0.346052 -0.099569
v 2.255175 -0.638405 0.011217
v 2.145129 1.330510 -0.210354
v 3.147364 1.607162 -0.618418
v 3.243653 0.634362 -0.424542
v 3.339943 -0.338439 -0.230667
v 3.973853 0.807185 -1.200326
v 4.083898 -0.161730 -0.978755
v 3.863807 1.776100 -1.421898
v 4.188363 1.934388 -2.217239
v 4.258899 0.981330 -2.085674
v 4.329435 0.028272 -1.954109
v 3.966940 1.273605 -2.739339
v 3.918948 0.368117 -2.877795
v 4.014932 2.179093 -2.600884
v 3.377845 2.312510 -2.662446
v 3.257829 1.457361 -3.077098
v 3.137813 0.602214 -3.491751
v 2.291418 1.305951 -3.014726
v 2.271406 0.474967 -3.537918
v 2.311430 2.136934 -2.491534
v 1.140901 1.903687 -2.027825
v 1.251088 1.066703 -2.544104
v 1.361274 0.229719 -3.060383
v 0.320219 0.986954 -1.657115
v 0.448966 0.109813 -2.103236
v 0.191471 1.864095 -1.210993
v -0.567135 1.811020 -0.195397
v -0.466331 0.890953 -0.565183
v -0.365526 -0.029114 -0.934969
v -1.073701 0.602950 0.520266
v -0.982211 -0.331426 0.175925
v -1.165191 1.537326 0.864607
v -1.878680 1.238697 1.872522
v -1.801759 0.314938 1.505337
v -1.724837 -0.608821 1.138153
v -2.950371 0.218912 2.296135
v -2.917156 -0.672996 1.860420
v -2.983586 1.110820 2.731851
v -4.320182 1.078943 3.129513
v -4.299917 0.218887 2.631255
v -4.279653 -0.641170 2.132998
v -5.630778 0.218879 2.249291
v -5.532815 -0.630561 1.746155
v -5.728742 1.068318 2.752427
v -6.833642 1.121888 1.864855
v -6.643411 0.272448 1.379684
v -6.453179 -0.576992 0.894513
v -7.038268 0.433154 0.251877
v -6.817281 -0.416286 -0.227305
v -7.259255 1.282594 0.731060
v -7.021474 1.470792 -0.389645
v -6.843637 0.613038 -0.856627
v -6.665799 -0.244716 -1.323610
v -6.087800 0.724143 -1.668325
v -6.039412 -0.158553 -2.098708
v -6.136187 1.606838 -1.237942
v -4.940456 1.647374 -1.561101
v -5.044744 0.737145 -1.927535
v -5.149033 -0.173084 -2.293969
v -3.988458 0.622724 -1.378574
v -4.205572 -0.303596 -1.650762
v -3.771343 1.549045 -1.106386
v -2.702548 1.375562 -0.440805
v -2.950587 0.433551 -0.610598
v -3.198625 -0.508461 -0.780391
v -1.962778 0.222296 -0.212764
v -2.117786 -0.746049 -0.294160
v -1.807770 1.190641 -0.131367
v 0.000000 0.000000 0.000000
v 0.000000 1.000000 0.000000
v -0.951942 1.047660 -0.032842
v -0.990694 0.055574 -0.053191
v 1.050038 0.086513 -0.024892
v 1.036282 1.082628 -0.052589
v 0.000000 -1.000000 -0.000000
v 1.063794 -0.909601 0.002804
v -1.029446 -0.936512 -0.073540
v 2.200152 0.346052 -0.099569
v 2.255175 -0.638405 0.011217
v 2.145129 1.330510 -0.210354
v 3.243653 0.634362 -0.424542
v 3.147364 1.607162 -0.618418
v 3.339943 -0.338439 -0.230667
v 3.973853 0.807185 -1.200326
v 4.083898 -0.161730 -0.978755
v 3.863807 1.776100 -1.421898
v 4.258899 0.981330 -2.085674
v 4.188363 1.934388 -2.217239
v 4.329435 0.028272 -1.954109
v 3.966940 1.273605 -2.739339
v 3.918948 0.368117 -2.877795
v 4.014932 2.179093 -2.600884
v 3.257829 1.457361 -3.077098
v 3.377845 2.312510 -2.662446
v 3.137813 0.602214 -3.491751
v 2.291418 1.305951 -3.014726
v 2.271406 0.474967 -3.537918
v 2.311430 2.136934 -2.491534
v 1.251088 1.066703 -2.544104
v 1.140901 1.903687 -2.027825
v 1.361274 0.229719 -3.060383
v 0.320219 0.986954 -1.657115
v 0.448966 0.109813 -2.103236
v 0.191471 1.864095 -1.210993
v -0.466331 0.890953 -0.565183
v -0.567135 1.811020 -0.195397
v -0.365526 -0.029114 -0.934969
v -1.073701 0.602950 0.520266
v -0.982211 -0.331426 0.175925
v -1.165191 1.537326 0.864607
v -1.801759 0.314938 1.505337
v -1.878680 1.238697 1.872522
v -1.724837 -0.608821 1.138153
v -2.950371 0.218912 2.296135
v -2.917156 -0.672996 1.860420
v -2.983586 1.110820 2.731851
v -4.299917 0.218887 2.631255
v -4.320182 1.078943 3.129513
v -4.279653 -0.641170 2.132998
v -5.630778 0.218879 2.249291
v -5.532815 -0.630561 1.746155
v -5.728742 1.068318 2.752427
v -6.643411 0.272448 1.379684
v -6.833642 1.121888 1.864855
v -6.453179 -0.576992 0.894513
v -7.038268 0.433154 0.251877
v -6.817281 -0.416286 -0.227305
v -7.259255 1.282594 0.731060
v -6.843637 0.613038 -0.856627
v -7.021474 1.470792 -0.389645
v -6.665799 -0.244716 -1.323610
v -6.087800 0.724143 -1.668325
v -6.039412 -0.158553 -2.098708
v -6.136187 1.606838 -1.237942
v -5.044744 0.737145 -1.927535
v -4.940456 1.647374 -1.561101
v -5.149033 -0.173084 -2.293969
v -3.988458 0.622724 -1.378574
v -4.205572 -0.303596 -1.650762
v -3.771343 1.549045 -1.106386
v -2.950587 0.433551 -0.610598
v -2.702548 1.375562 -0.440805
v -3.198625 -0.508461 -0.780391
v -1.962778 0.222296 -0.212764
v -2.117786 -0.746049 -0.294160
v -1.807770 1.190641 -0.131367
vt 14.580004 0.499971
vt 14.999872 0.499971
vt 14.999872 0.999876
vt 14.580004 0.999876
vt 14.115820 0.999876
vt 14.115820 0.499971
vt 14.115820 0.000066
vt 14.580004 0.000066
vt 14.999872 0.000066
vt 13.563035 0.499971
vt 13.563035 0.000066
vt 13.563035 0.999876
vt 12.976204 0.999876
vt 12.976204 0.499971
vt 12.976204 0.000066
vt 12.409900 0.499971
vt 12.409900 0.000066
vt 12.409900 0.999876
vt 11.887865 0.999876
vt 11.887865 0.499971
vt 11.887865 0.000066
vt 11.433874 0.499971
vt 11.433874 0.000066
vt 11.433874 0.999876
vt 10.975433 0.999876
vt 10.975433 0.499971
vt 10.975433 0.000066
vt 10.440054 0.499971
vt 10.440054 0.000066
vt 10.440054 0.999876
vt 9.858575 0.999876
vt 9.858575 0.499971
vt 9.858575 0.000066
vt 9.261817 0.499971
vt 9.261817 0.000066
vt 9.261817 0.999876
vt 8.657658 0.999876
vt 8.657658 0.499971
vt 8.657658 0.000066
vt 8.053969 0.499971
vt 8.053969 0.000066
vt 8.053969 0.999876
vt 7.429643 0.999876
vt 7.429643 0.499971
vt 7.429643 0.000066
vt 6.763554 0.499971
vt 6.763554 0.000066
vt 6.763554 0.999876
vt 6.063593 0.999876
vt 6.063593 0.499971
vt 6.063593 0.000066
vt 5.337638 0.499971
vt 5.337638 0.000066
vt 5.337638 0.999876
vt 4.637799 0.999876
vt 4.637799 0.499971
vt 4.637799 0.000066
vt 4.016180 0.499971
vt 4.016180 0.000066
vt 4.016180 0.999876
vt 3.443826 0.999876
vt 3.443826 0.499971
vt 3.443826 0.000066
vt 2.891788 0.499971
vt 2.891788 0.000066
vt 2.891788 0.999876
vt 2.310707 0.999876
vt 2.310707 0.499971
vt 2.310707 0.000066
vt 1.651228 0.499971
vt 1.651228 0.000066
vt 1.651228 0.999876
vt 1.008150 0.999876
vt 1.008150 0.499971
vt 1.008150 0.000066
vt 0.476273 0.499971
vt 0.476273 0.000066
vt 0.476273 0.999876
vt -0.000004 0.999876
vt -0.000004 0.499971
vt -0.000004 0.000066
vt 14.580004 0.499971
vt 14.580004 0.999876
vt 14.999872 0.999876
vt 14.999872 0.499971
vt 14.115820 0.499971
vt 14.115820 0.999876
vt 14.580004 0.000066
vt 14.115820 0.000066
vt 14.999872 0.000066
vt 13.563035 0.499971
vt 13.563035 0.000066
vt 13.563035 0.999876
vt 12.976204 0.499971
vt 12.976204 0.999876
vt 12.976204 0.000066
vt 12.409900 0.499971
vt 12.409900 0.000066
vt 12.409900 0.999876
vt 11.887865 0.499971
vt 11.887865 0.999876
vt 11.887865 0.000066
vt 11.433874 0.499971
vt 11.433874 0.000066
vt 11.433874 0.999876
vt 10.975433 0.499971
vt 10.975433 0.999876
vt 10.975433 0.000066
vt 10.440054 0.499971
vt 10.440054 0.000066
vt 10.440054 0.999876
vt 9.858575 0.499971
vt 9.858575 0.999876
vt 9.858575 0.000066
vt 9.261817 0.499971
vt 9.261817 0.000066
vt 9.261817 0.999876
vt 8.657658 0.499971
vt 8.657658 0.999876
vt 8.657658 0.000066
vt 8.053969 0.499971
vt 8.053969 0.000066
vt 8.053969 0.999876
vt 7.429643 0.499971
vt 7.429643 0.999876
vt 7.429643 0.000066
vt 6.763554 0.499971
vt 6.763554 0.000066
vt 6.763554 0.999876
vt 6.063593 0.499971
vt 6.063593 0.999876
vt 6.063593 0.000066
vt 5.337638 0.499971
vt 5.337638 0.000066
vt 5.337638 0.999876
vt 4.637799 0.499971
vt 4.637799 0.999876
vt 4.637799 0.000066
vt 4.016180 0.499971
vt 4.016180 0.000066
vt 4.016180 0.999876
vt 3.443826 0.499971
vt 3.443826 0.999876
vt 3.443826 0.000066
vt 2.891788 0.499971
vt 2.891788 0.000066
vt 2.891788 0.999876
vt 2.310707 0.499971
vt 2.310707 0.999876
vt 2.310707 0.000066
vt 1.651228 0.499971
vt 1.651228 0.000066
vt 1.651228 0.999876
vt 1.008150 0.499971
vt 1.008150 0.999876
vt 1.008150 0.000066
vt 0.476273 0.499971
vt 0.476273 0.000066
vt 0.476273 0.999876
vt -0.000004 0.499971
vt -0.000004 0.999876
vt -0.000004 0.000066
vn 0.0162 -0.0024 -0.9999
vn 0.1111 0.0219 -0.9936
vn 0.0975 0.0237 -0.9950
vn 0.0040 -0.0025 -1.0000
vn -0.0631 -0.0458 -0.9970
vn -0.0338 -0.0426 -0.9985
vn -0.0107 -0.0394 -0.9992
vn 0.0272 -0.0024 -0.9996
vn 0.1222 0.0202 -0.9923
vn -0.1499 -0.1202 -0.9814
vn -0.0993 -0.1127 -0.9887
vn -0.2030 -0.1279 -0.9708
vn -0.5381 -0.2043 -0.8178
vn -0.4855 -0.2011 -0.8508
vn -0.4253 -0.1974 -0.8833
vn -0.8322 -0.1891 -0.5213
vn -0.8058 -0.1967 -0.5585
vn -0.8435 -0.1842 -0.5046
vn -0.9886 -0.0688 0.1340
vn -0.9955 -0.0873 0.0359
vn -0.9940 -0.1013 -0.0420
vn -0.7322 -0.1261 0.6694
vn -0.7862 -0.1015 0.6095
vn -0.6233 -0.1682 0.7636
vn -0.0958 -0.3799 0.9201
vn -0.1691 -0.3794 0.9097
vn -0.2131 -0.3879 0.8967
vn 0.2941 -0.4790 0.8271
vn 0.2965 -0.4769 0.8275
vn 0.3026 -0.4799 0.8235
vn 0.5626 -0.3720 0.7384
vn 0.5710 -0.3741 0.7307
vn 0.5729 -0.3801 0.7262
vn 0.7436 -0.2241 0.6299
vn 0.7444 -0.2287 0.6273
vn 0.7498 -0.2140 0.6261
vn 0.8484 -0.1192 0.5158
vn 0.8450 -0.1228 0.5204
vn 0.8445 -0.1239 0.5210
vn 0.8486 -0.1155 0.5162
vn 0.8493 -0.1147 0.5154
vn 0.8489 -0.1157 0.5157
vn 0.7011 -0.2297 0.6750
vn 0.6971 -0.2288 0.6795
vn 0.6988 -0.2250 0.6790
vn 0.3940 -0.3879 0.8332
vn 0.3855 -0.3856 0.8383
vn 0.3993 -0.3910 0.8293
vn 0.0034 -0.4915 0.8709
vn -0.0108 -0.4917 0.8707
vn -0.0292 -0.4919 0.8701
vn -0.4199 -0.5010 0.7568
vn -0.4479 -0.4979 0.7426
vn -0.3940 -0.5034 0.7690
vn -0.7348 -0.4480 0.5093
vn -0.7655 -0.4364 0.4728
vn -0.7945 -0.4238 0.4349
vn -0.9676 -0.2503 0.0336
vn -0.9733 -0.2296 -0.0040
vn -0.9569 -0.2777 0.0851
vn -0.9153 0.0282 -0.4019
vn -0.8957 0.0612 -0.4404
vn -0.8747 0.0939 -0.4754
vn -0.5007 0.3329 -0.7990
vn -0.4608 0.3440 -0.8182
vn -0.5191 0.3283 -0.7892
vn 0.1159 0.3309 -0.9365
vn 0.1343 0.3301 -0.9343
vn 0.1412 0.3320 -0.9327
vn 0.5361 0.1292 -0.8342
vn 0.5697 0.1250 -0.8123
vn 0.5072 0.1309 -0.8518
vn 0.4577 0.0498 -0.8877
vn 0.4920 0.0416 -0.8696
vn 0.5279 0.0318 -0.8487
vn 0.2749 0.0383 -0.9607
vn 0.2943 0.0346 -0.9551
vn 0.2549 0.0420 -0.9661
vn -0.0162 0.0024 0.9999
vn -0.0040 0.0025 1.0000
vn -0.0975 -0.0237 0.9950
vn -0.1111 -0.0219 0.9936
vn 0.0338 0.0426 0.9985
vn 0.0631 0.0458 0.9970
vn -0.0272 0.0024 0.9996
vn 0.0107 0.0394 0.9992
vn -0.1222 -0.0202 0.9923
vn 0.1499 0.1202 0.9814
vn 0.0993 0.1127 0.9887
vn 0.2030 0.1279 0.9708
vn 0.4855 0.2011 0.8508
vn 0.5381 0.2043 0.8178
vn 0.4253 0.1974 0.8833
vn 0.8322 0.1891 0.5213
vn 0.8058 0.1967 0.5585
vn 0.8435 0.1842 0.5046
vn 0.9955 0.0873 -0.0359
vn 0.9886 0.0688 -0.1340
vn 0.9940 0.1013 0.0420
vn 0.7322 0.1261 -0.6694
vn 0.7862 0.1015 -0.6095
vn 0.6233 0.1682 -0.7636
vn 0.1691 0.3794 -0.9097
vn 0.0958 0.3799 -0.9201
vn 0.2131 0.3879 -0.8967
vn -0.2941 0.4790 -0.8271
vn -0.2965 0.4769 -0.8275
vn -0.3026 0.4799 -0.8235
vn -0.5710 0.3741 -0.7307
vn -0.5626 0.3720 -0.7384
vn -0.5729 0.3801 -0.7262
vn -0.7436 0.2241 -0.6299
vn -0.7444 0.2287 -0.6273
vn -0.7498 0.2140 -0.6261
vn -0.8450 0.1228 -0.5204
vn -0.8484 0.1192 -0.5158
vn -0.8445 0.1239 -0.5210
vn -0.8486 0.1155 -0.5162
vn -0.8493 0.1147 -0.5154
vn -0.8489 0.1157 -0.5157
vn -0.6971 0.2288 -0.6795
vn -0.7011 0.2297 -0.6750
vn -0.6988 0.2250 -0.6790
vn -0.3940 0.3879 -0.8332
vn -0.3855 0.3856 -0.8383
vn -0.3993 0.3910 -0.8293
vn 0.0108 0.4917 -0.8707
vn -0.0034 0.4915 -0.8709
vn 0.0292 0.4919 -0.8701
vn 0.4199 0.5010 -0.7568
vn 0.4479 0.4979 -0.7426
vn 0.3940 0.5034 -0.7690
vn 0.7655 0.4364 -0.4728
vn 0.7348 0.4480 -0.5093
vn 0.7945 0.4238 -0.4349
vn 0.9676 0.2503 -0.0336
vn 0.9733 0.2296 0.0040
vn 0.9569 0.2777 -0.0851
vn 0.8957 -0.0612 0.4404
vn 0.9153 -0.0282 0.4019
vn 0.8747 -0.0939 0.4754
vn 0.5007 -0.3329 0.7990
vn 0.4608 -0.3440 0.8182
vn 0.5191 -0.3283 0.7892
vn -0.1343 -0.3301 0.9343
vn -0.1159 -0.3309 0.9365
vn -0.1412 -0.3320 0.9327
vn -0.5361 -0.1292 0.8342
vn -0.5697 -0.1250 0.8123
vn -0.5072 -0.1309 0.8518
vn -0.4920 -0.0416 0.8696
vn -0.4577 -0.0498 0.8877
vn -0.5279 -0.0318 0.8487
vn -0.2749 -0.0383 0.9607
vn -0.2943 -0.0346 0.9551
vn -0.2549 -0.0420 0.9661
usemtl None
s 1
f 1/1/1 2/2/2 3/3/3 4/4/4
f 1/1/1 4/4/4 5/5/5 6/6/6
f 1/1/1 6/6/6 7/7/7 8/8/8
f 1/1/1 8/8/8 9/9/9 2/2/2
f 10/10/10 11/11/11 7/7/7 6/6/6
f 10/10/10 6/6/6 5/5/5 12/12/12
f 10/10/10 12/12/12 13/13/13 14/14/14
f 10/10/10 14/14/14 15/15/15 11/11/11
f 16/16/16 17/17/17 15/15/15 14/14/14
f 16/16/16 14/14/14 13/13/13 18/18/18
f 16/16/16 18/18/18 19/19/19 20/20/20
f 16/16/16 20/20/20 21/21/21 17/17/17
f 22/22/22 23/23/23 21/21/21 20/20/20
f 22/22/22 20/20/20 19/19/19 24/24/24
f 22/22/22 24/24/24 25/25/25 26/26/26
f 22/22/22 26/26/26 27/27/27 23/23/23
f 28/28/28 29/29/29 27/27/27 26/26/26
f 28/28/28 26/26/26 25/25/25 30/30/30
f 28/28/28 30/30/30 31/31/31 32/32/32
f 28/28/28 32/32/32 33/33/33 29/29/29
f 34/34/34 35/35/35 33/33/33 32/32/32
f 34/34/34 32/32/32 31/31/31 36/36/36
f 34/34/34 36/36/36 37/37/37 38/38/38
f 34/34/34 38/38/38 39/39/39 35/35/35
f 40/40/40 41/41/41 39/39/39 38/38/38
f 40/40/40 38/38/38 37/37/37 42/42/42
f 40/40/40 42/42/42 43/43/43 44/44/44
f 40/40/40 44/44/44 45/45/45 41/41/41
f 46/46/46 47/47/47 45/45/45 44/44/44
f 46/46/46 44/44/44 43/43/43 48/48/48
f 46/46/46 48/48/48 49/49/49 50/50/50
f 46/46/46 50/50/50 51/51/51 47/47/47
f 52/52/52 53/53/53 51/51/51 50/50/50
f 52/52/52 50/50/50 49/49/49 54/54/54
f 52/52/52 54/54/54 55/55/55 56/56/56
f 52/52/52 56/56/56 57/57/57 53/53/53
f 58/58/58 59/59/59 57/57/57 56/56/56
f 58/58/58 56/56/56 55/55/55 60/60/60
f 58/58/58 60/60/60 61/61/61 62/62/62
f 58/58/58 62/62/62 63/63/63 59/59/59
f 64/64/64 65/65/65 63/63/63 62/62/62
f 64/64/64 62/62/62 61/61/61 66/66/66
f 64/64/64 66/66/66 67/67/67 68/68/68
f 64/64/64 68/68/68 69/69/69 65/65/65
f 70/70/70 71/71/71 69/69/69 68/68/68
f 70/70/70 68/68/68 67/67/67 72/72/72
f 70/70/70 72/72/72 73/73/73 74/74/74
f 70/70/70 74/74/74 75/75/75 71/71/71
f 76/76/76 77/77/77 75/75/75 74/74/74
f 76/76/76 74/74/74 73/73/73 78/78/78
f 76/76/76 78/78/78 3/79/3 2/80/2
f 76/76/76 2/80/2 9/81/9 77/77/77
f 79/82/79 80/83/80 81/84/81 82/85/82
f 79/82/79 83/86/83 84/87/84 80/83/80
f 79/82/79 85/88/85 86/89/86 83/86/83
f 79/82/79 82/85/82 87/90/87 85/88/85
f 88/91/88 83/86/83 86/89/86 89/92/89
f 88/91/88 90/93/90 84/87/84 83/86/83
f 88/91/88 91/94/91 92/95/92 90/93/90
f 88/91/88 89/92/89 93/96/93 91/94/91
f 94/97/94 91/94/91 93/96/93 95/98/95
f 94/97/94 96/99/96 92/95/92 91/94/91
f 94/97/94 97/100/97 98/101/98 96/99/96
f 94/97/94 95/98/95 99/102/99 97/100/97
f 100/103/100 97/100/97 99/102/99 101/104/101
f 100/103/100 102/105/102 98/101/98 97/100/97
f 100/103/100 103/106/103 104/107/104 102/105/102
f 100/103/100 101/104/101 105/108/105 103/106/103
f 106/109/106 103/106/103 105/108/105 107/110/107
f 106/109/106 108/111/108 104/107/104 103/106/103
f 106/109/106 109/112/109 110/113/110 108/111/108
f 106/109/106 107/110/107 111/114/111 109/112/109
f 112/115/112 109/112/109 111/114/111 113/116/113
f 112/115/112 114/117/114 110/113/110 109/112/109
f 112/115/112 115/118/115 116/119/116 114/117/114
f 112/115/112 113/116/113 117/120/117 115/118/115
f 118/121/118 115/118/115 117/120/117 119/122/119
f 118/121/118 120/123/120 116/119/116 115/118/115
f 118/121/118 121/124/121 122/125/122 120/123/120
f 118/121/118 119/122/119 123/126/123 121/124/121
f 124/127/124 121/124/121 123/126/123 125/128/125
f 124/127/124 126/129/126 122/125/122 121/124/121
f 124/127/124 127/130/127 128/131/128 126/129/126
f 124/127/124 125/128/125 129/132/129 127/130/127
f 130/133/130 127/130/127 129/132/129 131/134/131
f 130/133/130 132/135/132 128/131/128 127/130/127
f 130/133/130 133/136/133 134/137/134 132/135/132
f 130/133/130 131/134/131 135/138/135 133/136/133
f 136/139/136 133/136/133 135/138/135 137/140/137
f 136/139/136 138/141/138 134/137/134 133/136/133
f 136/139/136 139/142/139 140/143/140 138/141/138
f 136/139/136 137/140/137 141/144/141 139/142/139
f 142/145/142 139/142/139 141/144/141 143/146/143
f 142/145/142 144/147/144 140/143/140 139/142/139
f 142/145/142 145/148/145 146/149/146 144/147/144
f 142/145/142 143/146/143 147/150/147 145/148/145
f 148/151/148 145/148/145 147/150/147 149/152/149
f 148/151/148 150/153/150 146/149/146 145/148/145
f 148/151/148 151/154/151 152/155/152 150/153/150
f 148/151/148 149/152/149 153/156/153 151/154/151
f 154/157/154 151/154/151 153/156/153 155/158/155
f 154/157/154 156/159/156 152/155/152 151/154/151
f 154/157/154 82/160/82 81/161/81 156/159/156
f 154/157/154 155/158/155 87/162/87 82/160/82
