# Blender v2.79 (sub 0) OBJ File: ''
# www.blender.org
mtllib fx_fishparticle.mtl
o Cube_Cube.001
v 0.144553 0.024710 -0.309710
v -0.028357 0.305576 -0.309710
v -0.028357 -0.256156 -0.309710
v -0.201266 0.024710 -0.309710
v 0.226022 0.088249 0.214636
v -0.028357 0.501451 0.214636
v -0.028357 -0.324953 0.214636
v -0.282736 0.088249 0.214636
v -0.249106 0.055456 0.815730
v -0.028357 -0.303119 0.815730
v 0.192393 0.055456 0.815730
v -0.028357 0.414032 0.815730
v -0.091968 0.055457 1.295804
v -0.028357 -0.047871 1.295804
v 0.035255 0.055457 1.295804
v -0.028357 0.158784 1.295804
v -0.028357 0.041337 1.373463
v -0.028357 0.101136 -0.863913
v 0.031732 0.003530 -0.863913
v -0.028357 -0.094076 -0.863913
v -0.088446 0.003530 -0.863913
v -0.028357 0.396956 -1.373463
v -0.028357 0.396956 -0.779574
v -0.028357 -0.495794 -1.373463
v -0.028357 -0.495794 -0.779574
v -0.028357 0.371303 -0.475003
v -0.028357 0.778255 -0.233803
v -0.028357 0.345937 -0.032768
v -0.028357 0.485692 0.208431
v -0.028357 -0.254618 -0.210750
v -0.028357 -0.570870 -0.444596
v -0.028357 -0.104233 -0.527966
v -0.028357 -0.217023 -0.707881
v -0.028357 -0.286485 0.473178
v -0.028357 -0.808651 0.143730
v -0.028357 -0.270925 0.283433
v -0.028357 -0.420485 0.003012
v -0.028357 0.396956 -1.373463
v -0.028357 0.396956 -0.779574
v -0.028357 -0.495794 -1.373463
v -0.028357 -0.495794 -0.779574
v -0.028357 0.371303 -0.475003
v -0.028357 0.778255 -0.233803
v -0.028357 0.345937 -0.032768
v -0.028357 0.485692 0.208431
v -0.028357 -0.254618 -0.210750
v -0.028357 -0.570870 -0.444596
v -0.028357 -0.104233 -0.527966
v -0.028357 -0.217023 -0.707881
v -0.028357 -0.286485 0.473178
v -0.028357 -0.808651 0.143730
v -0.028357 -0.270925 0.283433
v -0.028357 -0.420485 0.003012
vt 0.387252 0.702138
vt 0.185498 0.573309
vt 0.185498 0.511802
vt 0.387252 0.525148
vt 0.387252 0.348159
vt 0.578137 0.304806
vt 0.578137 0.565188
vt 0.796961 0.544523
vt 0.796961 0.770482
vt 0.578137 0.825570
vt 0.578137 0.565188
vt 0.387252 0.525148
vt 0.971729 0.609636
vt 0.971729 0.544523
vt 0.796961 0.544524
vt 0.796961 0.318565
vt 0.971729 0.544523
vt 1.000000 0.535626
vt 0.971729 0.479411
vt 0.185498 0.450295
vt 0.185498 0.511802
vt 0.000000 0.759722
vt 0.000000 0.197149
vt 0.216201 0.197149
vt 0.216201 0.759722
vt 0.327078 0.743556
vt 0.488071 0.727572
vt 0.575878 0.815639
vt 0.414885 1.000000
vt 0.423278 0.349128
vt 0.307797 0.443894
vt 0.242300 0.372819
vt 0.338148 0.149840
vt 0.672257 0.329046
vt 0.603182 0.338852
vt 0.501096 0.244606
vt 0.552324 0.000000
vt 0.000000 0.759722
vt 0.216201 0.759722
vt 0.216201 0.197149
vt 0.000000 0.197149
vt 0.327078 0.743556
vt 0.414885 1.000000
vt 0.575878 0.815639
vt 0.488071 0.727572
vt 0.423278 0.349128
vt 0.338148 0.149840
vt 0.242300 0.372819
vt 0.307797 0.443894
vt 0.672257 0.329046
vt 0.552324 0.000000
vt 0.501096 0.244606
vt 0.603182 0.338852
vn 0.0000 0.9373 -0.3484
vn 0.0000 0.7278 -0.6858
vn -0.7330 -0.0101 -0.6801
vn -0.9848 -0.0172 -0.1727
vn 0.0000 -0.9802 -0.1980
vn 0.0000 -0.9990 -0.0450
vn -0.9984 0.0271 -0.0490
vn -0.9841 -0.0099 0.1771
vn 0.0000 0.9580 0.2866
vn 0.0000 0.9955 -0.0944
vn 0.9984 0.0271 -0.0490
vn 0.9848 -0.0172 -0.1727
vn 0.0000 0.7924 0.6099
vn 0.8891 0.0119 0.4575
vn 0.9841 -0.0099 0.1771
vn 0.0000 -0.9724 0.2332
vn -0.8891 0.0119 0.4575
vn 0.0000 -0.0897 0.9959
vn 0.0000 -0.8171 0.5764
vn 0.0000 -0.7507 -0.6607
vn 0.7330 -0.0101 -0.6801
vn -1.0000 0.0000 0.0000
vn 1.0000 0.0000 0.0000
usemtl None
s 1
f 2/1/1 18/2/2 21/3/3 4/4/4
f 3/5/5 7/6/6 8/7/7 4/4/4
f 8/7/7 9/8/8 12/9/9 6/10/10
f 5/11/11 1/12/12 2/1/1 6/10/10
f 3/5/5 1/12/12 5/11/11 7/6/6
f 8/7/7 6/10/10 2/1/1 4/4/4
f 12/9/9 16/13/13 15/14/14 11/15/15
f 7/6/6 10/16/16 9/8/8 8/7/7
f 6/10/10 12/9/9 11/15/15 5/11/11
f 5/11/11 11/15/15 10/16/16 7/6/6
f 13/17/17 17/18/18 16/13/13
f 11/15/15 15/14/14 14/19/19 10/16/16
f 9/8/8 13/17/17 16/13/13 12/9/9
f 10/16/16 14/19/19 13/17/17 9/8/8
f 3/5/5 20/20/20 19/21/21 1/12/12
f 14/19/19 17/18/18 13/17/17
f 16/13/13 17/18/18 15/14/14
f 15/14/14 17/18/18 14/19/19
f 19/21/21 20/20/20 21/3/3 18/2/2
f 4/4/4 21/3/3 20/20/20 3/5/5
f 1/12/12 19/21/21 18/2/2 2/1/1
f 22/22/22 24/23/22 25/24/22 23/25/22
f 26/26/22 28/27/22 29/28/22 27/29/22
f 30/30/22 32/31/22 33/32/22 31/33/22
f 34/34/22 36/35/22 37/36/22 35/37/22
f 38/38/23 39/39/23 41/40/23 40/41/23
f 42/42/23 43/43/23 45/44/23 44/45/23
f 46/46/23 47/47/23 49/48/23 48/49/23
f 50/50/23 51/51/23 53/52/23 52/53/23
