# Blender v2.79 (sub 0) OBJ File: ''
# www.blender.org
mtllib player_dashfish_fin.mtl
o obj1.001
v 0.491893 -0.037839 -0.529980
v 0.064762 0.012129 -0.038389
v 0.698196 -0.155361 -0.554030
v 0.756059 -0.329753 -0.229489
v 0.039514 0.013973 0.012696
v 0.017579 0.008241 0.054305
v 0.809693 -0.286464 -0.469513
v 0.606506 -0.251637 0.051524
v -0.003584 -0.003928 0.082135
v 1.606423 -0.716987 -0.206296
v 1.338341 -0.547190 -1.982697
v 2.257554 -1.242303 -2.280693
v 2.048891 -0.999476 -1.075743
v 0.568347 -0.328238 -1.787754
v 0.070703 0.010203 -0.088208
v 0.491893 -0.037839 -0.529980
v 0.064762 0.012129 -0.038389
v 0.698196 -0.155361 -0.554030
v 0.756059 -0.329753 -0.229489
v 0.039514 0.013973 0.012696
v 0.017579 0.008241 0.054305
v 0.809693 -0.286464 -0.469513
v 0.606506 -0.251637 0.051524
v -0.003584 -0.003928 0.082135
v 1.606423 -0.716987 -0.206296
v 1.338341 -0.547190 -1.982697
v 2.257554 -1.242303 -2.280693
v 2.048891 -0.999476 -1.075743
v 0.568347 -0.328238 -1.787754
v 0.070703 0.010203 -0.088208
vt 0.533140 0.322738
vt 0.553587 0.278139
vt 0.415539 0.352768
vt 0.502766 0.219477
vt 0.395765 0.351855
vt 0.404555 0.352803
vt 0.548841 0.236290
vt 0.439490 0.231985
vt 0.389777 0.350750
vt 0.561268 0.042543
vt 0.868026 0.231402
vt 1.000000 0.018735
vt 0.757186 -0.000000
vt 0.779481 0.355200
vt 0.425154 0.355200
vt 0.533140 0.322738
vt 0.415539 0.352768
vt 0.553587 0.278139
vt 0.502766 0.219477
vt 0.404555 0.352803
vt 0.395765 0.351855
vt 0.548841 0.236290
vt 0.439490 0.231985
vt 0.389777 0.350750
vt 0.561268 0.042543
vt 0.868026 0.231402
vt 1.000000 0.018735
vt 0.757186 -0.000000
vt 0.779481 0.355200
vt 0.425154 0.355200
vn -0.4980 -0.8515 -0.1642
vn -0.5586 -0.8171 -0.1422
vn -0.4108 -0.8930 -0.1839
vn -0.4683 -0.8775 -0.1036
vn -0.3946 -0.7910 -0.4675
vn -0.4933 -0.8053 -0.3290
vn -0.5905 -0.7741 -0.2282
vn -0.4066 -0.9132 0.0268
vn -0.3317 -0.7455 -0.5782
vn -0.4149 -0.9065 0.0777
vn -0.5290 -0.8485 -0.0176
vn -0.5462 -0.8376 0.0054
vn -0.4589 -0.8850 0.0790
vn -0.2564 -0.9532 0.1605
vn -0.0837 -0.9961 0.0285
vn 0.4980 0.8515 0.1642
vn 0.4108 0.8930 0.1839
vn 0.5586 0.8171 0.1422
vn 0.4683 0.8775 0.1036
vn 0.4933 0.8053 0.3290
vn 0.3946 0.7910 0.4675
vn 0.5905 0.7741 0.2282
vn 0.4066 0.9132 -0.0268
vn 0.3317 0.7455 0.5782
vn 0.4149 0.9065 -0.0777
vn 0.5290 0.8485 0.0176
vn 0.5462 0.8376 -0.0054
vn 0.4589 0.8850 -0.0790
vn 0.2564 0.9532 -0.1605
vn 0.0837 0.9961 -0.0285
usemtl Material.001
s 1
f 1/1/1 3/2/2 2/3/3
f 4/4/4 6/5/5 5/6/6
f 7/7/7 5/6/6 2/3/3
f 8/8/8 9/9/9 6/5/5
f 10/10/10 8/8/8 4/4/4
f 11/11/11 12/12/12 7/7/7
f 13/13/13 4/4/4 7/7/7
f 14/14/14 11/11/11 3/2/2
f 1/1/1 2/3/3 15/15/15
f 4/4/4 5/6/6 7/7/7
f 7/7/7 2/3/3 3/2/2
f 8/8/8 6/5/5 4/4/4
f 10/10/10 4/4/4 13/13/13
f 11/11/11 7/7/7 3/2/2
f 13/13/13 7/7/7 12/12/12
f 14/14/14 3/2/2 1/1/1
f 16/16/16 17/17/17 18/18/18
f 19/19/19 20/20/20 21/21/21
f 22/22/22 17/17/17 20/20/20
f 23/23/23 21/21/21 24/24/24
f 25/25/25 19/19/19 23/23/23
f 26/26/26 22/22/22 27/27/27
f 28/28/28 22/22/22 19/19/19
f 29/29/29 18/18/18 26/26/26
f 16/16/16 30/30/30 17/17/17
f 19/19/19 22/22/22 20/20/20
f 22/22/22 18/18/18 17/17/17
f 23/23/23 19/19/19 21/21/21
f 25/25/25 28/28/28 19/19/19
f 26/26/26 18/18/18 22/22/22
f 28/28/28 27/27/27 22/22/22
f 29/29/29 16/16/16 18/18/18
